<?xml version="1.0" encoding="UTF-8"?>
<svg id="Layer_2" data-name="Layer 2" xmlns="http://www.w3.org/2000/svg" viewBox="0 0 100 51.61">
  <defs>
    <style>
      .cls-1 {
        fill: #fff;
      }
    </style>
  </defs>
  <g id="Layer_1-2" data-name="Layer 1">
    <g>
      <path class="cls-1" d="M9.5,33.36c.66-3.55,1.31-7.09,1.97-10.64.04-.24.1-.47.16-.71.25-.02.5-.06.76-.06,2.04-.03,4.09.07,6.13-.11,1.24-.11,2.47-.29,3.68-.63,2.63-.73,4.86-2.06,6.51-4.28.05-.07.12-.13.19-.2.07.08.14.14.19.21.63.83,1.4,1.5,2.29,2.03,1.03.62,2.12,1.1,3.26,1.47,1.3.43,2.61.85,3.91,1.3.72.25,1.39.6,1.99,1.08.33.26.48.59.47,1-.02.54-.2,1-.57,1.39-.37.39-.81.67-1.3.87-1.37.54-2.79.71-4.23.38-1.29-.3-2.41-.9-3.19-2.01-.21-.29-.38-.61-.57-.92-.09-.15-.19-.3-.3-.47-2.64,2.32-5.25,4.61-7.9,6.94.26.27.48.51.71.75,1.54,1.61,3.36,2.78,5.48,3.45,1.29.41,2.61.65,3.96.75,1.54.12,3.08.06,4.62-.13,1.41-.18,2.74-.64,4.08-1.09,2.75-.91,4.82-2.68,6.43-5.04.07-.11.19-.2.17-.39-4.04.1-7.28,1.9-10.1,4.63,2.26-5.81,6.28-9.74,12.32-11.53-.01-.92-.19-1.79-.6-2.61-.65-1.31-1.62-2.34-2.86-3.1-1.12-.69-2.33-1.18-3.59-1.56-1.29-.39-2.57-.8-3.85-1.22-.59-.19-1.13-.49-1.63-.86-.31-.22-.45-.51-.44-.89.02-.58.21-1.08.62-1.49.31-.3.66-.53,1.05-.7,1.42-.62,2.89-.75,4.41-.4,1.2.27,2.17.84,2.75,1.97.08.16.19.29.31.47,2.57-2.25,5.1-4.46,7.69-6.73-.28-.27-.53-.5-.76-.73-1.19-1.19-2.58-2.07-4.17-2.62-1.69-.59-3.43-.88-5.21-.94-2.11-.08-4.18.13-6.21.72-2.93.85-5.48,2.32-7.48,4.66-.05.06-.09.13-.16.24-.21-.34-.37-.62-.54-.88-.89-1.33-2.14-2.2-3.6-2.79-1.84-.74-3.77-1.03-5.73-1.06-4.69-.06-9.39-.03-14.08-.04-.11,0-.22.02-.37.03C4.09,11.98,2.05,23.04,0,34.13h9.36c.05-.27.1-.52.14-.77ZM14.06,8.74c.12-.01.23-.03.34-.03,1.16,0,2.31-.02,3.47.03.62.02,1.25.11,1.87.24.37.08.73.26,1.05.46.46.28.67.72.64,1.28-.08,1.36-.71,2.33-1.96,2.89-.62.28-1.27.44-1.94.46-1.39.04-2.78.04-4.16.05-.07,0-.15-.02-.29-.04.33-1.79.65-3.54.98-5.32Z"/>
      <path class="cls-1" d="M52.93,13.52c.13.95.49,1.78,1.26,2.39.28.22.56.45.87.64,1.24.76,2.56,1.04,3.99.67,1.37-.36,2.36-1.21,3.08-2.4.37-.6.62-1.24.8-1.91.08-.31.22-.49.57-.58,1.08-.26,1.67-1.24,1.47-2.35-.01-.06,0-.12,0-.2.11-.04.2-.08.3-.1,2.07-.52,4.05-.29,5.85.87,2.4,1.55,3.57,3.79,3.18,6.65-.33,2.46-1.74,4.21-3.97,5.28-1.67.81-3.43.79-5.2.41-.95-.2-1.83-.6-2.67-1.07-1.66-.94-3.42-1.49-5.33-1.61-1.73-.12-3.38.15-4.98.78-.07.03-.14.07-.2.11,1.04-.1,2.06-.14,3.09-.04,1.29.13,2.54.37,3.7.96.53.27,1.04.56,1.56.85,1.01.56,2,1.17,3.03,1.69,2.77,1.41,5.72,1.97,8.81,1.59,2.15-.26,4.01-1.18,5.55-2.69,1.77-1.74,2.79-3.86,3.1-6.31.37-2.88-.38-5.45-2.39-7.56-2.61-2.75-5.84-3.63-9.53-2.95-.25.05-.49.12-.74.19.84.02,1.66.03,2.47.2,2.62.57,4.65,1.97,5.91,4.35,1.2,2.28,1.29,4.63.07,6.94-1.04,1.98-2.6,3.45-4.57,4.5-.29.16-.61.27-.93.37-.35.11-.72.17-1.16.09.11-.08.17-.12.23-.15.3-.17.61-.33.91-.5,1.25-.74,2.37-1.64,3.21-2.84,1.24-1.75,1.71-3.7,1.28-5.81-.55-2.72-2.2-4.59-4.72-5.7-1.56-.69-3.2-.81-4.87-.52-.83.14-1.63.37-2.37.78-.44.25-.82.56-1.13.97-.46.61-.19,1.41.44,1.73.6.31,1.32,0,1.48-.64.07-.29,0-.55-.23-.73-.23-.18-.49-.29-.8-.11.06.05.11.08.16.13.18.19.2.38.07.55-.12.17-.34.23-.55.14-.22-.09-.36-.24-.4-.48-.03-.22.05-.4.22-.54.5-.4,1.29-.29,1.68.24.4.55.26,1.34-.31,1.69-.67.42-1.62.3-2.16-.28-.57-.6-.65-1.38-.21-2.08.88-1.41,2.1-2.46,3.59-3.18,2.63-1.28,5.41-1.65,8.29-1.27,2.26.3,4.29,1.16,6.02,2.64,3.55,3.03,4.85,6.86,3.89,11.44-.96,3.31-2.82,5.97-5.66,7.93-1.48,1.02-3.12,1.62-4.91,1.76-1.44.11-2.88-.03-4.29-.32-2.9-.6-5.53-1.8-7.95-3.48-.51-.35-1.05-.65-1.62-.88-1.4-.57-2.86-.93-4.35-1.13-1.08-.15-2.18-.19-3.27-.07-2.08.23-3.99.94-5.75,2.05-.11.07-.21.15-.32.22.45-.17.88-.37,1.32-.54,2.08-.8,4.23-.95,6.41-.6,2.69.43,5.17,1.39,7.42,2.95.44.31.89.61,1.34.91,1.11.75,2.24,1.45,3.46,2.01,2.71,1.26,5.56,1.72,8.52,1.33,2.14-.28,4.04-1.16,5.7-2.54,1.83-1.51,3.15-3.41,4.09-5.57,1.1-2.52,1.61-5.16,1.55-7.91,0-.13-.05-.27.06-.42.25.48.36.95.42,1.43.2,1.63.15,3.26-.03,4.88-.25,2.31-1.12,4.4-2.5,6.26-2.16,2.94-5.01,4.82-8.59,5.56-1.09.22-2.19.26-3.29.34-2.51.18-4.94-.19-7.3-1.06-2.25-.83-4.28-2.04-6.18-3.49-.6-.46-1.21-.91-1.85-1.33-1.68-1.1-3.53-1.72-5.52-1.87-1.13-.09-2.26.02-3.37.29-3.1.78-5.57,2.46-7.33,5.14-.08.12-.15.25-.22.38.03.02.05.05.08.07.09-.11.16-.23.26-.32,2.09-2.03,4.58-3.18,7.48-3.42,1.77-.14,3.48.16,5.12.86,1.87.8,3.55,1.9,5.12,3.18.35.28.69.58,1.05.85,2.64,1.99,5.66,2.96,8.93,3.26,1.63.15,3.26.08,4.89-.13,1.92-.25,3.73-.79,5.47-1.64,3.23-1.58,5.79-3.88,7.53-7.05,1.24-2.27,1.94-4.72,2.18-7.29.18-1.93.16-3.85-.23-5.75-.94-4.63-3.43-8.17-7.52-10.54-2.94-1.7-6.15-2.4-9.52-2.48-1.2-.03-2.39.06-3.58.22-1.93.26-3.79.78-5.56,1.61-3.88,1.83-6.59,4.74-8.11,8.76-.29.77-.39,1.53-.28,2.34Z"/>
      <path class="cls-1" d="M88.82,17.1c0,1.24-.09,2.46-.3,3.68-.44,2.56-1.31,4.96-2.76,7.13-.17.25-.26.52-.32.81-.25,1.35-.5,2.7-.75,4.05-.09.48-.17.95-.26,1.45h9.4c2.06-11.13,4.11-22.26,6.17-33.41h-9.38c-.03.12-.07.23-.09.34-.72,3.86-1.43,7.72-2.14,11.59-.03.17-.02.36.02.53.26,1.26.39,2.54.4,3.83Z"/>
      <path class="cls-1" d="M48.9,38.45c-.14,0-.31.1-.4.21-.31.38-.59.79-.88,1.19-2.63,3.69-5.26,7.37-7.89,11.06-.08.11-.18.21-.35.39-1-2.43-1.96-4.78-2.93-7.13,2.08-1.87,4.12-3.71,6.25-5.62-1.56,0-2.98,0-4.41,0-.13,0-.28.08-.38.17-.54.49-1.08.99-1.61,1.49-.89.84-1.77,1.69-2.67,2.52-.31.29-.64.55-.96.82-.03-.02-.06-.05-.1-.07.45-1.62.91-3.25,1.37-4.92h-3.63c-1.18,4.25-2.36,8.48-3.55,12.76h3.61c.07-.21.15-.41.21-.62.17-.62.33-1.23.49-1.85.07-.25.17-.46.38-.64.37-.3.7-.64,1.06-.95.32-.28.66-.55,1.04-.87.66,1.7,1.28,3.31,1.9,4.91.12.02.19.05.26.05,2.43,0,4.86,0,7.3,0,.26,0,.4-.12.53-.31.37-.56.77-1.11,1.14-1.68.17-.26.37-.35.68-.35,1.41.01,2.82,0,4.22,0,.56,0,.55,0,.62.58.08.57.17,1.14.25,1.72h3.79c-.69-4.33-1.38-8.6-2.07-12.89-1.14,0-2.22,0-3.3,0ZM46.82,46.32c.78-1.28,1.62-2.42,2.4-3.61.05.01.1.02.14.03.15,1.18.31,2.36.46,3.58h-3.01Z"/>
      <path class="cls-1" d="M67.51,39.23c-.94-.47-1.95-.64-2.97-.66-1.84-.05-3.69-.01-5.63-.01-1.19,4.27-2.36,8.51-3.56,12.82,1.27,0,2.45,0,3.64,0,.37-1.33.73-2.58,1.08-3.84h1.7c.59,1.29,1.18,2.56,1.75,3.8.91.1,3.52.07,3.95-.06-.65-1.38-1.3-2.76-1.97-4.19.35-.12.65-.23.95-.34,2.04-.78,3.1-2.33,3.02-4.46-.05-1.39-.71-2.42-1.97-3.05ZM65.18,44.16c-.53.44-1.18.57-1.84.61-.75.05-1.5,0-2.24,0-.05,0-.1-.03-.15-.05-.01-.38.53-2.45.82-3.12.86,0,1.73,0,2.61,0,.12,0,.25.05.37.08.55.13.92.46,1.01,1.02.1.59-.12,1.07-.58,1.45Z"/>
      <path class="cls-1" d="M89.69,38.45c-.12,0-.27.1-.35.2-.27.34-.53.7-.78,1.06-2.54,3.55-5.08,7.1-7.61,10.65-.22.3-.42.62-.65.97.14.02.21.05.28.05,1.08,0,2.16,0,3.24,0,.27,0,.43-.11.58-.33.37-.57.77-1.11,1.14-1.68.16-.24.33-.34.63-.34,1.44.01,2.89,0,4.33,0,.16,0,.31.03.47.05.12.79.23,1.52.34,2.24h3.8c-.69-4.31-1.37-8.57-2.07-12.9-1.15,0-2.24,0-3.34,0ZM87.76,46.31c.08-.38,1.87-3.1,2.43-3.65.16,1.26.32,2.43.47,3.59-.4.12-2.16.15-2.89.06Z"/>
      <path class="cls-1" d="M20.04,38.47c-3.04,4.26-6.09,8.53-9.14,12.8.1.06.13.09.16.09,1.15,0,2.3,0,3.45.02.24,0,.35-.15.46-.32.35-.53.73-1.05,1.07-1.59.19-.31.42-.44.8-.43,1.37.02,2.74,0,4.11.01.18,0,.36.02.57.03.12.78.24,1.53.36,2.31,1.29-.02,2.52.04,3.79-.04-.7-4.33-1.38-8.59-2.07-12.87h-3.58ZM18.24,46.31c.77-1.27,1.62-2.41,2.4-3.6.05.02.1.03.15.05.15,1.17.3,2.34.46,3.55h-3.01Z"/>
      <path class="cls-1" d="M83.36,38.59h-11.59c-.28,1-.56,1.96-.85,3h3.99c-.46,1.67-.92,3.28-1.35,4.9-.43,1.61-.93,3.2-1.33,4.86h3.61c.9-3.26,1.8-6.5,2.7-9.78h4c.28-1.02.55-1.99.82-2.98Z"/>
      <path class="cls-1" d="M13.15,39.01c.04-.14.04-.28.07-.43h-3.53c-.05.16-.1.3-.14.43-.53,1.91-1.06,3.83-1.6,5.74-.23.81-.46,1.61-.76,2.4-.32.85-.96,1.38-1.89,1.43-.78.05-1.41-.3-1.93-.86-.11-.11-.21-.23-.33-.36-.83.7-1.62,1.36-2.42,2.03.52.83,1.23,1.36,2.06,1.71,1.47.62,2.99.63,4.5.2,1.1-.31,2-.95,2.65-1.91.53-.78.89-1.63,1.15-2.53.74-2.61,1.45-5.23,2.18-7.85Z"/>
    </g>
  </g>
</svg>