<?xml version="1.0" encoding="UTF-8"?>
<svg id="Layer_1" xmlns="http://www.w3.org/2000/svg" version="1.1" viewBox="0 0 682 682">
  <!-- Generator: Adobe Illustrator 29.7.0, SVG Export Plug-In . SVG Version: 2.1.1 Build 23)  -->
  <defs>
    <style>
      .st0 {
        fill: #fff;
      }
    </style>
  </defs>
  <path class="st0" d="M647.2,181.2c-7.4-27.4-29-49-56.4-56.4-50-13.7-250.2-13.7-250.2-13.7,0,0-200.1,0-250.2,13.2-26.9,7.4-49,29.5-56.4,56.9-13.2,50-13.2,153.8-13.2,153.8,0,0,0,104.3,13.2,153.8,7.4,27.4,29,49,56.4,56.4,50.6,13.7,250.2,13.7,250.2,13.7,0,0,200.1,0,250.2-13.2,27.4-7.4,49-29,56.4-56.4,13.2-50,13.2-153.8,13.2-153.8,0,0,.5-104.3-13.2-154.3ZM276.9,430.8v-191.7l166.4,95.9-166.4,95.9Z"/>
</svg>